PathFileType	4	(X/Y/Z)	/Users/itak/Documents/Research/Walk-IL/dataset/trc/00302_00010.trc
DataRate	CameraRate	NumFrames	NumMarkers	Units	OrigDataRate	OrigDataStartFrame	OrigNumFrames
100.000000	100.000000	4	55	mm	100.000000	0	395
Frame#	Time	RPSI			LPSI			L3			STRN			T10			C7			CLAV			RBAK			LBAK			LSHO			LUPA			LAEL			LAOL			LWPS			LFRA			LIFD			LHPS			LHTS			RSHO			RUPA			RAEL			RAOL			RWTS			RWPS			RFRA			RIFD			RHPS			RBHD			LFHD			RFHD			LBHD			LHIP			RHIP			RASI			LASI			LKNE			LTHI			LANK			LTIP			LTOE			LMT1			LMT5			LHEE			RKNE			RTHI			RTIP			RTOE			RMT1			RMT5			RHEE			LWTS			RHTS			RANK			*53			*54			
		X1	Y1	Z1	X2	Y2	Z2	X3	Y3	Z3	X4	Y4	Z4	X5	Y5	Z5	X6	Y6	Z6	X7	Y7	Z7	X8	Y8	Z8	X9	Y9	Z9	X10	Y10	Z10	X11	Y11	Z11	X12	Y12	Z12	X13	Y13	Z13	X14	Y14	Z14	X15	Y15	Z15	X16	Y16	Z16	X17	Y17	Z17	X18	Y18	Z18	X19	Y19	Z19	X20	Y20	Z20	X21	Y21	Z21	X22	Y22	Z22	X23	Y23	Z23	X24	Y24	Z24	X25	Y25	Z25	X26	Y26	Z26	X27	Y27	Z27	X28	Y28	Z28	X29	Y29	Z29	X30	Y30	Z30	X31	Y31	Z31	X32	Y32	Z32	X33	Y33	Z33	X34	Y34	Z34	X35	Y35	Z35	X36	Y36	Z36	X37	Y37	Z37	X38	Y38	Z38	X39	Y39	Z39	X40	Y40	Z40	X41	Y41	Z41	X42	Y42	Z42	X43	Y43	Z43	X44	Y44	Z44	X45	Y45	Z45	X46	Y46	Z46	X47	Y47	Z47	X48	Y48	Z48	X49	Y49	Z49	X50	Y50	Z50	X51	Y51	Z51	X52	Y52	Z52	X53	Y53	Z53	X54	Y54	Z54	X55	Y55	Z55	

1	0	-1200.392700195312	979.65966796875	849.6824951171875	-1170.4638671875	956.2191162109375	678.4447631835938	-1160.19287109375	1042.417236328125	776.2276000976562	-892.5305786132812	1184.48681640625	788.33544921875	-1161.634399414062	1159.628540039062	784.2069702148438	-1082.839111328125	1395.848754882812	768.5146484375	-941.2049560546875	1291.907104492188	779.3328247070312	-1156.510864257812	1270.030517578125	846.2445068359375	-1102.136962890625	1360.416137695312	663.548583984375	-1009.902770996094	1352.510498046875	610.5844116210938	-1072.320190429688	1248.358276367188	543.3009643554688	-1137.962768554688	1056.271240234375	535.0969848632812	-1184.723754882812	1059.681396484375	607.1873779296875	-1178.496337890625	820.1773681640625	518.0866088867188	-1162.074340820312	953.4249267578125	525.3580932617188	-1196.496215820312	644.0155029296875	576.0823364257812	-1205.96826171875	736.5775756835938	522.91845703125	-1149.366088867188	717.6356201171875	553.0084228515625	-1018.799011230469	1362.634399414062	929.528564453125	-1029.795166015625	1304.420043945312	998.20361328125	-1024.960327148438	1030.807861328125	1042.673706054688	-1076.748291015625	1025.17431640625	964.50146484375	-877.938720703125	863.9275512695312	924.6932373046875	-902.3006591796875	827.4802856445312	997.5588989257812	-983.739013671875	968.5067138671875	1036.964721679688	-824.2976684570312	692.8897705078125	869.5697631835938	-852.661376953125	732.9468383789062	958.9965209960938	-1064.680786132812	1528.787963867188	851.395263671875	-912.9829711914062	1592.23828125	716.8969116210938	-905.305419921875	1589.92333984375	809.141357421875	-1076.749755859375	1523.502563476562	705.1820678710938	-1092.0087890625	899.8079223632812	605.1604614257812	-1126.575073242188	920.6983032226562	971.1400756835938	-996.9896240234375	909.078857421875	928.1714477539062	-960.0665893554688	906.8018188476562	677.0704345703125	-864.5458374023438	484.1455993652344	674.4550170898438	-930.657470703125	606.2545166015625	633.7601928710938	-778.8511962890625	43.51272583007812	727.3706665039062	-826.2852172851562	256.9649963378906	689.4305419921875	-585.1597900390625	113.8725662231445	775.9461669921875	-644.25390625	82.77629852294922	820.4852294921875	-661.1340942382812	75.75394439697266	709.3872680664062	-819.830078125	30.79851722717285	788.9054565429688	-1200.412841796875	457.3545532226562	919.4761962890625	-1112.772827148438	704.4954223632812	965.8143310546875	-1232.56298828125	336.3544006347656	896.8233642578125	-1208.875854492188	46.93502426147461	822.9010620117188	-1258.978881835938	47.02507781982422	775.50390625	-1307.769409179688	39.79660797119141	883.8838500976562	-1455.019165039062	69.03271484375	792.3714599609375	-1132.403686523438	816.9407958984375	574.1510620117188	-816.3668212890625	760.361572265625	903.9909057617188	-1406.817993164062	59.3530387878418	849.591064453125	nan	nan	nan	nan	nan	nan	
2	0.01	-1195.169555664062	979.3043212890625	849.2391967773438	-1164.80419921875	955.6483764648438	678.0140380859375	-1154.979858398438	1041.638549804688	775.7890014648438	-887.565185546875	1184.110229492188	788.1441650390625	-1156.728149414062	1158.694580078125	783.7481079101562	-1078.572265625	1395.131103515625	767.7206420898438	-936.5035400390625	1291.44140625	778.8218994140625	-1151.907958984375	1269.213623046875	845.5897827148438	-1097.763549804688	1359.294921875	662.8773803710938	-1005.490478515625	1351.555419921875	609.9639892578125	-1067.8251953125	1247.239990234375	542.8756713867188	-1133.429809570312	1055.201049804688	534.9559326171875	-1179.95263671875	1058.417846679688	607.1676635742188	-1174.240600585938	819.154541015625	518.0350341796875	-1157.617919921875	952.309326171875	525.2025756835938	-1192.479370117188	642.9788208007812	576.1419067382812	-1201.825073242188	735.4966430664062	522.89501953125	-1145.299926757812	716.5439453125	552.9889526367188	-1014.538452148438	1362.294067382812	928.9337158203125	-1025.477783203125	1304.095703125	997.7017822265625	-1020.266967773438	1030.474243164062	1042.2841796875	-1071.954223632812	1024.647216796875	964.0234985351562	-872.5615844726562	864.5138549804688	924.1883544921875	-896.9710083007812	827.693603515625	996.900390625	-978.9727172851562	968.3139038085938	1036.603637695312	-817.9931640625	693.890869140625	868.5657958984375	-846.6348266601562	733.6504516601562	958.1973876953125	-1060.288208007812	1528.32421875	850.6346435546875	-908.9794921875	1591.781127929688	715.7965087890625	-901.1297607421875	1589.6435546875	808.0010375976562	-1072.62841796875	1522.7900390625	704.374755859375	-1085.002563476562	899.7241821289062	604.0659790039062	-1121.665893554688	920.304443359375	970.8778686523438	-991.7766723632812	908.4962158203125	928.2488403320312	-954.5077514648438	906.0045166015625	677.1884765625	-859.6964111328125	483.4004211425781	674.923583984375	-925.5990600585938	605.4091186523438	634.274169921875	-777.795654296875	43.26325607299805	728.6095581054688	-823.44384765625	255.6634979248047	690.5703735351562	-582.8961181640625	109.7122650146484	776.9667358398438	-642.3950805664062	79.22840118408203	821.372802734375	-659.7291259765625	73.27909851074219	710.510498046875	-818.7733764648438	30.8296947479248	790.2012939453125	-1197.276977539062	457.34375	919.725341796875	-1108.465698242188	703.9848022460938	965.9453125	-1230.184936523438	336.5286560058594	897.112060546875	-1208.684814453125	46.96738052368164	822.9818725585938	-1258.83642578125	47.22603225708008	775.5763549804688	-1307.3759765625	40.10704803466797	884.063232421875	-1454.617065429688	70.99551391601562	792.9815063476562	-1127.981689453125	815.7869262695312	573.9571533203125	-810.538818359375	761.3053588867188	903.3140258789062	-1406.436157226562	60.73026275634766	850.0311279296875	nan	nan	nan	nan	nan	nan	
3	0.02	-1188.48095703125	978.9328002929688	848.7012939453125	-1157.631713867188	955.1170043945312	677.4772338867188	-1148.313110351562	1040.79541015625	775.2404174804688	-881.2559204101562	1183.7568359375	787.8888549804688	-1150.452392578125	1157.601928710938	783.1655883789062	-1073.156860351562	1394.339233398438	766.7133178710938	-930.5345458984375	1290.988403320312	778.1541748046875	-1146.04541015625	1268.265014648438	844.7522583007812	-1092.220703125	1358.005493164062	661.997802734375	-999.900390625	1350.455444335938	609.15283203125	-1062.094360351562	1245.900390625	542.3154296875	-1127.571655273438	1053.881591796875	534.7138061523438	-1173.829345703125	1056.882080078125	607.0790405273438	-1168.697631835938	817.9037475585938	517.9129638671875	-1151.840209960938	950.9548950195312	524.9654541015625	-1187.201904296875	641.7431030273438	576.1538696289062	-1196.410522460938	734.189697265625	522.8115234375	-1139.963989257812	715.2193603515625	552.9031982421875	-1009.137145996094	1361.9921875	928.1581420898438	-1019.995788574219	1303.803344726562	997.0346069335938	-1014.321655273438	1030.174194335938	1041.762329101562	-1065.863647460938	1024.119873046875	963.3684692382812	-865.7311401367188	865.2947998046875	923.6006469726562	-890.265869140625	828.0227661132812	996.1077880859375	-972.9307861328125	968.1845703125	1036.121704101562	-810.0711669921875	695.176025390625	867.4351806640625	-839.1386108398438	734.537109375	957.2446899414062	-1054.734008789062	1527.900390625	849.6389770507812	-903.8898315429688	1591.35009765625	714.3638305664062	-895.8352661132812	1589.438598632812	806.5252685546875	-1067.392822265625	1522.036987304688	703.3271484375	-1076.457885742188	899.6648559570312	602.9039306640625	-1115.358276367188	919.8607177734375	970.5404052734375	-985.1318969726562	907.8331298828125	928.3441162109375	-947.4866943359375	905.1689453125	677.326171875	-853.41943359375	482.6604614257812	675.5115356445312	-919.0448608398438	604.5547485351562	634.8748779296875	-776.512451171875	43.13917541503906	729.9016723632812	-819.6470947265625	254.3255157470703	691.8452758789062	-580.0982055664062	104.420280456543	778.3750610351562	-640.1741943359375	74.79920959472656	822.5189819335938	-657.9391479492188	70.34455871582031	711.9209594726562	-817.5419921875	31.05771636962891	791.5328369140625	-1193.123657226562	457.4041442871094	920.0221557617188	-1102.91064453125	703.4612426757812	966.0925903320312	-1227.018432617188	336.8332824707031	897.4786376953125	-1208.42919921875	47.00459671020508	823.0765991210938	-1258.619750976562	47.49982833862305	775.6802368164062	-1306.857543945312	40.53235626220703	884.3209838867188	-1453.994506835938	73.63134765625	793.7876586914062	-1122.245361328125	814.4028930664062	573.6788940429688	-803.1153564453125	762.5039672851562	902.5704345703125	-1405.839477539062	62.60760498046875	850.6405029296875	nan	nan	nan	nan	nan	nan	
4	0.03	-1180.538696289062	978.6030883789062	848.1151733398438	-1149.224609375	954.755859375	676.8673706054688	-1140.41845703125	1039.995727539062	774.6146240234375	-873.8278198242188	1183.50927734375	787.5657348632812	-1143.010986328125	1156.447265625	782.4827270507812	-1066.784057617188	1393.569458007812	765.530029296875	-923.5110473632812	1290.639404296875	777.3443603515625	-1139.122680664062	1267.273193359375	843.7647094726562	-1085.708618164062	1356.668212890625	660.9334716796875	-993.3369750976562	1349.314208984375	608.1705322265625	-1055.318237304688	1244.438232421875	541.6314086914062	-1120.543090820312	1052.388793945312	534.3527221679688	-1166.538696289062	1055.17626953125	606.8931884765625	-1161.981811523438	816.5028686523438	517.6950073242188	-1144.877807617188	949.4464111328125	524.6328125	-1180.752319335938	640.38330078125	576.07373046875	-1189.828979492188	732.7372436523438	522.6384887695312	-1133.45751953125	713.748046875	552.7257080078125	-1002.784423828125	1361.813232421875	927.2183837890625	-1013.539978027344	1303.624633789062	996.21044921875	-1007.340637207031	1029.9921875	1041.108520507812	-1058.685668945312	1023.690612792969	962.5321655273438	-857.7053833007812	866.2659301757812	922.9757080078125	-882.4688110351562	828.494384765625	995.2300415039062	-965.8348999023438	968.1904296875	1035.523803710938	-800.8655395507812	696.7059936523438	866.293212890625	-830.522216796875	735.5811157226562	956.208251953125	-1048.229248046875	1527.615234375	848.42626953125	-897.893310546875	1591.037353515625	712.6348266601562	-889.6148681640625	1589.39208984375	804.755126953125	-1061.228637695312	1521.34814453125	702.0656127929688	-1066.818481445312	899.7230834960938	601.7822875976562	-1107.829467773438	919.4083862304688	970.1436157226562	-977.2698974609375	907.1569213867188	928.443359375	-939.2693481445312	904.4321899414062	677.4614868164062	-845.8572387695312	482.0856018066406	676.1836547851562	-911.1673583984375	603.8602905273438	635.5064697265625	-775.058837890625	43.2027587890625	731.096923828125	-814.88916015625	253.1653594970703	693.1063842773438	-576.9342041015625	98.2545166015625	780.100830078125	-637.7342529296875	69.73600006103516	823.8438110351562	-655.8557739257812	67.14992523193359	713.5214233398438	-816.2128295898438	31.54266357421875	792.739990234375	-1188.015747070312	457.5615234375	920.344970703125	-1096.25146484375	703.0015258789062	966.232421875	-1223.104125976562	337.2957153320312	897.9072875976562	-1208.11376953125	47.04164123535156	823.182373046875	-1258.31640625	47.84532928466797	775.8177490234375	-1306.222412109375	41.0640983581543	884.6597900390625	-1453.109375	76.91859436035156	794.7821655273438	-1115.333251953125	812.8858032226562	573.3099365234375	-794.3872680664062	763.9240112304688	901.8480834960938	-1405	64.98455047607422	851.4132080078125	nan	nan	nan	nan	nan	nan	
